<svg width="216" height="124" viewBox="0 0 216 124" fill="none" xmlns="http://www.w3.org/2000/svg">
<mask id="mask0_4_134" style="mask-type:luminance" maskUnits="userSpaceOnUse" x="0" y="-56" width="216" height="180">
<path d="M213.996 -56.0001L0 -54.6372L1.13361 123.359L215.129 121.996L213.996 -56.0001Z" fill="white"/>
</mask>
<g mask="url(#mask0_4_134)">
<path d="M186.831 66.2004C184.913 66.2126 183.054 66.4284 181.282 66.8227C178.08 63.025 172.763 60.5578 166.758 60.5961C164.807 60.6085 162.936 60.8874 161.184 61.3856C158.159 50.5217 146.418 42.466 132.441 42.555C116.229 42.6582 103.157 53.673 103.243 67.1577C103.245 67.4357 103.261 67.7106 103.273 67.9856C101.155 67.448 98.9497 67.1831 96.7338 67.1992C84.6819 67.2759 74.963 75.463 75.0268 85.4908C75.0907 95.5156 84.9135 103.579 96.965 103.502L187.066 102.929C199.26 102.851 209.093 94.5662 209.029 84.4244C208.963 74.2816 199.025 66.1227 186.831 66.2004Z" fill="#E4F2F9"/>
<path d="M119.974 61.9441C119.932 55.3922 121.564 49.1547 124.532 43.5097C112.185 46.4624 103.171 55.954 103.243 67.1567C103.245 67.4347 103.26 67.7096 103.272 67.9846C101.154 67.4481 98.9488 67.1821 96.733 67.1982C84.681 67.275 74.9622 75.463 75.026 85.4898C75.0899 95.5146 84.9127 103.578 96.9642 103.501L152.418 103.148C133.401 96.1593 120.091 80.3767 119.974 61.9441Z" fill="#D7EDF9"/>
</g>
</svg>
