<svg width="216" height="177" viewBox="0 0 216 177" fill="none" xmlns="http://www.w3.org/2000/svg">
<g clip-path="url(#clip0_4_104)">
<mask id="mask0_4_104" style="mask-type:luminance" maskUnits="userSpaceOnUse" x="0" y="-3" width="216" height="180">
<path d="M213.996 -3.00009L0 -1.63721L1.13361 176.359L215.129 174.996L213.996 -3.00009Z" fill="white"/>
</mask>
<g mask="url(#mask0_4_104)">
<path d="M156.485 54.0208C147.881 46.4643 135.672 41.7842 122.158 41.8703C99.8351 42.0125 81.2524 55.1143 76.6418 72.5252C73.7642 71.7451 70.7528 71.3574 67.724 71.377C58.133 71.438 49.6952 75.4865 44.6579 81.6138C41.7574 81.01 38.7759 80.7145 35.7844 80.7344C16.3116 80.8584 0.609607 94.089 0.712764 110.286C0.81591 126.482 16.6851 139.513 36.1579 139.389L75.033 139.142C75.0515 129.172 84.7357 121.052 96.7384 120.975C98.9542 120.959 101.159 121.224 103.278 121.761C103.266 121.487 103.249 121.212 103.248 120.934C103.162 107.449 116.234 96.4339 132.445 96.3307C146.422 96.2417 158.164 104.298 161.189 115.161C162.984 114.65 164.866 114.383 166.762 114.372C172.768 114.334 178.085 116.801 181.287 120.599C183.099 120.196 184.962 119.987 186.835 119.976C194.873 119.925 201.929 123.453 205.824 128.769C211.391 123.59 214.758 116.746 214.711 109.264C214.609 93.2517 198.922 80.3741 179.675 80.4967C176.136 80.5166 172.621 80.9848 169.249 81.8852C169.264 81.446 169.284 81.0058 169.281 80.5629C169.239 74.0159 167.26 67.8585 163.796 62.4625" fill="#BEEAFC"/>
<path d="M37.9096 80.7752C37.2019 80.7437 36.4931 80.73 35.7843 80.7342C16.3115 80.8578 0.609622 94.0887 0.712775 110.285C0.815928 126.482 16.685 139.513 36.1578 139.389L75.0328 139.142C75.0332 136.123 75.9432 133.15 77.6794 130.495C58.3796 118.312 44.1063 100.906 37.9096 80.7752Z" fill="#AEE4FF"/>
<path d="M186.831 119.2C184.913 119.213 183.054 119.428 181.282 119.823C178.08 116.025 172.763 113.558 166.758 113.596C164.807 113.609 162.936 113.887 161.184 114.386C158.159 103.522 146.418 95.466 132.441 95.555C116.229 95.6582 103.157 106.673 103.243 120.158C103.245 120.436 103.261 120.711 103.273 120.986C101.155 120.448 98.9497 120.183 96.7338 120.199C84.6819 120.276 74.963 128.463 75.0268 138.491C75.0907 148.516 84.9135 156.579 96.965 156.502L187.066 155.929C199.26 155.851 209.093 147.566 209.029 137.424C208.963 127.282 199.025 119.123 186.831 119.2Z" fill="#E4F2F9"/>
<path d="M119.974 114.944C119.932 108.392 121.565 102.155 124.532 96.5097C112.185 99.4624 103.171 108.954 103.243 120.157C103.245 120.435 103.26 120.71 103.272 120.985C101.154 120.448 98.9489 120.182 96.733 120.198C84.6811 120.275 74.9622 128.463 75.0261 138.49C75.0899 148.515 84.9128 156.578 96.9642 156.501L152.418 156.148C133.401 149.159 120.091 133.377 119.974 114.944Z" fill="#D7EDF9"/>
</g>
</g>
<defs>
<clipPath id="clip0_4_104">
<rect width="214" height="178" fill="white" transform="translate(0 -1.63721) rotate(-0.364897)"/>
</clipPath>
</defs>
</svg>
