<svg width="214" height="140" viewBox="0 0 214 140" fill="none" xmlns="http://www.w3.org/2000/svg">
<path d="M65.1898 45.7898H81.1787C87.1515 36.6757 97.3592 29.7649 109.611 26.8923C107.146 21.9145 101.26 18.4105 94.3886 18.4105C92.6708 18.4105 91.0161 18.6306 89.4608 19.0356C89.4692 18.8277 89.48 18.6201 89.48 18.4105C89.48 8.24363 79.5683 0 67.3444 0C56.802 0 47.9887 6.12987 45.7597 14.337C44.4028 13.9603 42.9816 13.7685 41.5511 13.7689C37.0229 13.7689 33.0254 15.6546 30.6283 18.5329C29.2605 18.2393 27.8534 18.0907 26.4407 18.0906C17.2454 18.0906 9.79135 24.2911 9.79135 31.9399C9.79135 39.5873 17.2458 45.7891 26.4407 45.7891H53.0599" fill="#9FDEF7"/>
<path d="M156.127 37.4073C147.572 29.796 135.393 25.0383 121.878 25.0383C99.5551 25.0383 80.8894 38.0216 76.168 55.4027C73.2954 54.6044 70.2865 54.1974 67.2577 54.1978C57.6665 54.1978 49.2031 58.1924 44.1268 64.2875C41.2303 63.6653 38.2507 63.3508 35.2591 63.3516C15.7859 63.3516 0 76.4819 0 92.6793C0 108.876 15.7859 122.008 35.2591 122.008H74.135C74.2169 112.039 83.9527 103.979 95.9556 103.979C98.1715 103.978 100.375 104.257 102.49 104.807C102.48 104.533 102.465 104.257 102.465 103.979C102.465 90.4946 115.607 79.5632 131.818 79.5632C145.796 79.5632 157.486 87.6939 160.442 98.577C162.24 98.0769 164.124 97.8221 166.02 97.8225C172.026 97.8225 177.327 100.324 180.505 104.141C182.319 103.751 184.184 103.554 186.057 103.554C194.095 103.554 201.128 107.128 204.989 112.467C210.589 107.324 214 100.503 214 93.0193C214 77.0076 198.396 64.0302 179.148 64.0302C175.609 64.0276 172.091 64.4735 168.714 65.3524C168.731 64.9133 168.754 64.4731 168.754 64.0302C168.754 57.4831 166.814 51.3133 163.385 45.8954" fill="#BEEAFC"/>
<path d="M37.384 63.4059C36.6765 63.3699 35.9678 63.3517 35.259 63.3513C15.7858 63.351 0 76.4816 0 92.6789C0 108.876 15.7858 122.008 35.259 122.008H74.1347C74.1544 118.988 75.0833 116.021 76.8364 113.378C57.6145 101.073 43.4524 83.5752 37.384 63.4059Z" fill="#AEE4FF"/>
<path d="M34.1121 41.2551C34.1121 31.7425 35.8709 22.5727 39.1273 13.9543C35.6156 14.4936 32.5878 16.1818 30.6288 18.5333C29.2609 18.2397 27.8538 18.0911 26.4411 18.0911C17.2458 18.0911 9.79178 24.2916 9.79178 31.9403C9.79178 39.5877 17.2463 45.7896 26.4411 45.7896H34.248C34.1581 44.2792 34.1128 42.7673 34.1121 41.2551Z" fill="#83D4ED"/>
<path d="M186.058 102.779C184.14 102.779 182.279 102.983 180.506 103.365C177.327 99.5474 172.026 97.0467 166.021 97.0467C164.07 97.0467 162.197 97.314 160.443 97.8011C157.486 86.9177 145.797 78.7874 131.819 78.7874C115.607 78.7874 102.465 89.7188 102.465 103.203C102.465 103.481 102.48 103.757 102.49 104.031C100.375 103.481 98.1719 103.202 95.956 103.203C83.9038 103.203 74.1329 111.329 74.1329 121.357C74.1329 131.381 83.9042 139.508 95.956 139.508H186.059C198.253 139.508 208.139 131.285 208.139 121.143C208.138 111 198.252 102.779 186.058 102.779Z" fill="#E4F2F9"/>
<path d="M119.229 98.0969C119.229 91.5446 120.901 85.3178 123.904 79.6917C111.539 82.5657 102.465 91.9997 102.465 103.203C102.465 103.481 102.479 103.756 102.489 104.031C100.374 103.48 98.171 103.201 95.9551 103.203C83.9029 103.203 74.1321 111.328 74.1321 121.356C74.1321 131.38 83.9034 139.507 95.9551 139.507H151.41C132.438 132.396 119.229 116.53 119.229 98.0969Z" fill="#D7EDF9"/>
</svg>
